<svg width="40" height="40" viewBox="0 0 40 40" fill="none" xmlns="http://www.w3.org/2000/svg">
<mask id="mask0_1336_36127" style="mask-type:alpha" maskUnits="userSpaceOnUse" x="5" y="4" width="29" height="32">
<path d="M31.6544 36H7.34559C6.05016 36 5 34.9767 5 33.7143V6.28572C5 5.02335 6.05016 4 7.34559 4H22.9815L33.9 14.5977V33.7143C33.9 34.9767 32.9498 36 31.6544 36Z" fill="url(#paint0_linear_1336_36127)"/>
</mask>
<g mask="url(#mask0_1336_36127)">
<mask id="mask1_1336_36127" style="mask-type:alpha" maskUnits="userSpaceOnUse" x="6" y="4" width="28" height="32">
<path d="M31.6498 36H8.25718C7.01058 36 6 34.9767 6 33.7143V6.28572C6 5.02335 7.01057 4 8.25718 4H23.4419L33.907 14.5974V33.7143C33.907 34.9767 32.8964 36 31.6498 36Z" fill="url(#paint1_linear_1336_36127)"/>
</mask>
<g mask="url(#mask1_1336_36127)">
<rect x="33.907" y="4" width="32" height="27.907" rx="6" transform="rotate(90 33.907 4)" fill="url(#paint2_radial_1336_36127)" fill-opacity="0.5"/>
<rect x="33.803" y="4.104" width="31.792" height="27.699" rx="5.896" transform="rotate(90 33.803 4.104)" stroke="url(#paint3_linear_1336_36127)" stroke-opacity="0.7" stroke-width="0.208"/>
</g>
<g opacity="0.79" filter="url(#filter0_d_1336_36127)">
<path d="M33.9176 14.6044H29.1337C26.3781 14.6044 25.0003 14.6044 24.1271 13.7557C23.2539 12.907 23.2147 11.5298 23.1361 8.77536L23 4L33.9176 14.6044Z" fill="#D9D9D9"/>
<path d="M33.9176 14.6044H29.1337C26.3781 14.6044 25.0003 14.6044 24.1271 13.7557C23.2539 12.907 23.2147 11.5298 23.1361 8.77536L23 4L33.9176 14.6044Z" fill="url(#paint4_radial_1336_36127)"/>
</g>
</g>
<defs>
<filter id="filter0_d_1336_36127" x="20.584" y="1.47899" width="16.1696" height="15.8566" filterUnits="userSpaceOnUse" color-interpolation-filters="sRGB">
<feFlood flood-opacity="0" result="BackgroundImageFix"/>
<feColorMatrix in="SourceAlpha" type="matrix" values="0 0 0 0 0 0 0 0 0 0 0 0 0 0 0 0 0 0 127 0" result="hardAlpha"/>
<feOffset dx="0.210084" dy="0.105042"/>
<feGaussianBlur stdDeviation="1.31303"/>
<feColorMatrix type="matrix" values="0 0 0 0 0 0 0 0 0 0 0 0 0 0 0 0 0 0 0.33 0"/>
<feBlend mode="normal" in2="BackgroundImageFix" result="effect1_dropShadow_1336_36127"/>
<feBlend mode="normal" in="SourceGraphic" in2="effect1_dropShadow_1336_36127" result="shape"/>
</filter>
<linearGradient id="paint0_linear_1336_36127" x1="19.5" y1="4" x2="19.5" y2="36" gradientUnits="userSpaceOnUse">
<stop stop-color="#FF7979"/>
<stop offset="1" stop-color="#E85555"/>
</linearGradient>
<linearGradient id="paint1_linear_1336_36127" x1="19.9535" y1="4" x2="19.9535" y2="36" gradientUnits="userSpaceOnUse">
<stop stop-color="#FF8777"/>
<stop offset="1" stop-color="#F0695F"/>
</linearGradient>
<radialGradient id="paint2_radial_1336_36127" cx="0" cy="0" r="1" gradientUnits="userSpaceOnUse" gradientTransform="translate(69.407 25.907) rotate(-148.077) scale(41.8256 198.78)">
<stop stop-color="#A6B4D0"/>
<stop offset="1" stop-color="white"/>
</radialGradient>
<linearGradient id="paint3_linear_1336_36127" x1="30.907" y1="42.6511" x2="69.4806" y2="-2.73085" gradientUnits="userSpaceOnUse">
<stop offset="0.228092" stop-color="#B2CDEB"/>
<stop offset="0.916667" stop-color="#D5DCE3" stop-opacity="0.45"/>
</linearGradient>
<radialGradient id="paint4_radial_1336_36127" cx="0" cy="0" r="1" gradientUnits="userSpaceOnUse" gradientTransform="translate(24.421 14.0926) rotate(-44.7788) scale(7.20774 9.56056)">
<stop stop-color="#7189BA"/>
<stop offset="1" stop-color="#D1D7E4"/>
</radialGradient>
</defs>
</svg>
