<svg width="40" height="40" viewBox="0 0 40 40" fill="none" xmlns="http://www.w3.org/2000/svg">
<mask id="path-1-inside-1_386_10515" fill="white">
<path fill-rule="evenodd" clip-rule="evenodd" d="M9.15857 6C6.30964 6 4.00012 8.30952 4.00012 11.1584V16.6788C4.00007 16.8101 4.00007 16.9437 4.00007 17.0799V26.8426C4.00007 30.6412 4.00007 32.5405 5.18015 33.7206C6.36023 34.9007 8.25954 34.9007 12.0582 34.9007H27.9419C31.7405 34.9007 33.6398 34.9007 34.8199 33.7206C36 32.5405 36 30.6412 36 26.8426V17.0799C36 13.2813 36 11.3819 34.8199 10.2019C33.6398 9.02179 31.7405 9.02179 27.9419 9.02179H24.0422C21.3794 9.02179 18.8222 6 16.1594 6H9.15857Z"/>
</mask>
<path fill-rule="evenodd" clip-rule="evenodd" d="M9.15857 6C6.30964 6 4.00012 8.30952 4.00012 11.1584V16.6788C4.00007 16.8101 4.00007 16.9437 4.00007 17.0799V26.8426C4.00007 30.6412 4.00007 32.5405 5.18015 33.7206C6.36023 34.9007 8.25954 34.9007 12.0582 34.9007H27.9419C31.7405 34.9007 33.6398 34.9007 34.8199 33.7206C36 32.5405 36 30.6412 36 26.8426V17.0799C36 13.2813 36 11.3819 34.8199 10.2019C33.6398 9.02179 31.7405 9.02179 27.9419 9.02179H24.0422C21.3794 9.02179 18.8222 6 16.1594 6H9.15857Z" fill="url(#paint0_radial_386_10515)"/>
<path d="M4.00012 16.6788L4.22838 16.6789V16.6788H4.00012ZM5.18015 33.7206L5.01874 33.882L5.18015 33.7206ZM34.8199 10.2019L34.9813 10.0405L34.8199 10.2019ZM4.22838 11.1584C4.22838 8.43558 6.4357 6.22826 9.15857 6.22826V5.77174C6.18357 5.77174 3.77186 8.18346 3.77186 11.1584H4.22838ZM4.22838 16.6788V11.1584H3.77186V16.6788H4.22838ZM4.22833 17.0799C4.22833 16.9437 4.22833 16.8101 4.22838 16.6789L3.77186 16.6787C3.77181 16.81 3.77181 16.9438 3.77181 17.0799H4.22833ZM4.22833 26.8426V17.0799H3.77181V26.8426H4.22833ZM5.34155 33.5592C4.80099 33.0186 4.51791 32.305 4.3738 31.2331C4.22881 30.1547 4.22833 28.7483 4.22833 26.8426H3.77181C3.77181 28.7354 3.77132 30.178 3.92135 31.2939C4.07227 32.4164 4.37922 33.2425 5.01874 33.882L5.34155 33.5592ZM12.0582 34.6724C10.1524 34.6724 8.74604 34.6719 7.66762 34.5269C6.59576 34.3828 5.88211 34.0997 5.34155 33.5592L5.01874 33.882C5.65826 34.5215 6.48431 34.8285 7.60679 34.9794C8.7227 35.1294 10.1653 35.1289 12.0582 35.1289V34.6724ZM27.9419 34.6724H12.0582V35.1289H27.9419V34.6724ZM34.6585 33.5592C34.1179 34.0997 33.4043 34.3828 32.3324 34.5269C31.254 34.6719 29.8477 34.6724 27.9419 34.6724V35.1289C29.8348 35.1289 31.2774 35.1294 32.3933 34.9794C33.5158 34.8285 34.3418 34.5215 34.9813 33.882L34.6585 33.5592ZM35.7717 26.8426C35.7717 28.7483 35.7712 30.1547 35.6263 31.2331C35.4822 32.305 35.1991 33.0186 34.6585 33.5592L34.9813 33.882C35.6208 33.2425 35.9278 32.4164 36.0787 31.2939C36.2287 30.178 36.2283 28.7354 36.2283 26.8426H35.7717ZM35.7717 17.0799V26.8426H36.2283V17.0799H35.7717ZM34.6585 10.3633C35.1991 10.9038 35.4822 11.6175 35.6263 12.6893C35.7712 13.7678 35.7717 15.1741 35.7717 17.0799H36.2283C36.2283 15.187 36.2287 13.7444 36.0787 12.6285C35.9278 11.506 35.6208 10.68 34.9813 10.0405L34.6585 10.3633ZM27.9419 9.25004C29.8477 9.25004 31.254 9.25053 32.3324 9.39552C33.4043 9.53963 34.1179 9.82271 34.6585 10.3633L34.9813 10.0405C34.3418 9.40094 33.5158 9.09398 32.3933 8.94307C31.2774 8.79304 29.8348 8.79353 27.9419 8.79353V9.25004ZM24.0422 9.25004H27.9419V8.79353H24.0422V9.25004ZM9.15857 6.22826H16.1594V5.77174H9.15857V6.22826ZM24.0422 8.79353C22.7842 8.79353 21.5356 8.07775 20.2152 7.31335C18.9256 6.56686 17.5642 5.77174 16.1594 5.77174V6.22826C17.4174 6.22826 18.666 6.94404 19.9864 7.70844C21.276 8.45493 22.6374 9.25004 24.0422 9.25004V8.79353Z" fill="url(#paint1_linear_386_10515)" mask="url(#path-1-inside-1_386_10515)"/>
<path d="M6 11.9C6 10.0615 6 9.14228 6.57114 8.57114C7.14228 8 8.06152 8 9.9 8H26.475C28.3135 8 29.2327 8 29.8039 8.57114C30.375 9.14228 30.375 10.0615 30.375 11.9V27.5H6V11.9Z" fill="url(#paint2_linear_386_10515)"/>
<path d="M9.39082 13.3533C9.59894 11.7324 9.703 10.9219 10.2554 10.4359C10.8077 9.94995 11.6248 9.94995 13.2591 9.94995H28.8673C30.9326 9.94995 31.9653 9.94995 32.5477 10.6119C33.13 11.2738 32.9985 12.2981 32.7355 14.3466L31.4222 24.575H7.95001L9.39082 13.3533Z" fill="url(#paint3_linear_386_10515)"/>
<path d="M13.3641 16.2221C13.5611 14.6875 13.6596 13.9202 14.1826 13.4601C14.7055 13 15.4791 13 17.0263 13H31.8033C33.7587 13 34.7364 13 35.2877 13.6267C35.8391 14.2534 35.7146 15.2231 35.4656 17.1625L34.2222 26.8462H12L13.3641 16.2221Z" fill="url(#paint4_linear_386_10515)"/>
<path d="M7.04189 21.105C7.23292 20.1976 7.375 19.5231 7.52886 18.9906C7.68232 18.4595 7.84548 18.0772 8.07504 17.7533C8.48598 17.1734 9.0481 16.7173 9.70023 16.4346C10.0645 16.2767 10.4721 16.1958 11.0235 16.1551C11.5763 16.1142 12.2656 16.1141 13.1929 16.1141H34.0843C35.099 16.1141 35.8527 16.1142 36.4412 16.1658C37.0286 16.2173 37.4386 16.3193 37.7702 16.5152C38.3657 16.8668 38.8151 17.4207 39.0365 18.0758C39.1599 18.4407 39.1752 18.8629 39.1046 19.4484C39.0338 20.0348 38.8787 20.7723 38.6696 21.7653L36.9581 29.895C36.7671 30.8024 36.625 31.4769 36.4711 32.0094C36.3177 32.5405 36.1545 32.9228 35.925 33.2467C35.514 33.8266 34.9519 34.2827 34.2998 34.5654C33.9355 34.7233 33.5279 34.8042 32.9765 34.8449C32.4237 34.8858 31.7344 34.8859 30.8071 34.8859H9.91574C8.90096 34.8859 8.14729 34.8858 7.55885 34.8342C6.97136 34.7827 6.56137 34.6807 6.22976 34.4848C5.6343 34.1332 5.18493 33.5793 4.96346 32.9242C4.84012 32.5593 4.82476 32.1371 4.89541 31.5516C4.96617 30.9652 5.12133 30.2277 5.33039 29.2347L7.04189 21.105Z" fill="url(#paint5_radial_386_10515)" fill-opacity="0.6" stroke="url(#paint6_linear_386_10515)" stroke-width="0.228259"/>
<defs>
<radialGradient id="paint0_radial_386_10515" cx="0" cy="0" r="1" gradientUnits="userSpaceOnUse" gradientTransform="translate(9 30.5) rotate(-101.534) scale(25.005 33.1928)">
<stop stop-color="#0E59B9" stop-opacity="0.49"/>
<stop offset="1" stop-color="#3394F0" stop-opacity="0.45"/>
</radialGradient>
<linearGradient id="paint1_linear_386_10515" x1="4.00012" y1="6" x2="39.7599" y2="30.6935" gradientUnits="userSpaceOnUse">
<stop offset="0.228092" stop-color="#69B5FF"/>
<stop offset="0.99027" stop-color="#0567E4" stop-opacity="0"/>
</linearGradient>
<linearGradient id="paint2_linear_386_10515" x1="18.1875" y1="8" x2="18.1875" y2="27.5" gradientUnits="userSpaceOnUse">
<stop stop-color="#A9E1FF"/>
<stop offset="1" stop-color="#A9E1FF" stop-opacity="0"/>
</linearGradient>
<linearGradient id="paint3_linear_386_10515" x1="20.625" y1="9.94995" x2="20.625" y2="24.575" gradientUnits="userSpaceOnUse">
<stop stop-color="#D4F0FF"/>
<stop offset="1" stop-color="#D4F0FF" stop-opacity="0"/>
</linearGradient>
<linearGradient id="paint4_linear_386_10515" x1="24" y1="13" x2="24" y2="26.8462" gradientUnits="userSpaceOnUse">
<stop stop-color="#FAFDFF"/>
<stop offset="1" stop-color="#FAFDFF" stop-opacity="0"/>
</linearGradient>
<radialGradient id="paint5_radial_386_10515" cx="0" cy="0" r="1" gradientUnits="userSpaceOnUse" gradientTransform="translate(40 35) rotate(-152.176) scale(40.7063 44.838)">
<stop stop-color="#0164E3" stop-opacity="0.37"/>
<stop offset="1" stop-color="#3394F0" stop-opacity="0.45"/>
</radialGradient>
<linearGradient id="paint6_linear_386_10515" x1="4" y1="16" x2="28.7613" y2="45.292" gradientUnits="userSpaceOnUse">
<stop offset="0.228092" stop-color="#85BFF8"/>
<stop offset="0.946844" stop-color="#0567E4"/>
</linearGradient>
</defs>
</svg>
